{
    "accessors" : [
        {
            "bufferView" : 0,
            "componentType" : 5121,
            "count" : 240,
            "max" : [
                239
            ],
            "min" : [
                0
            ],
            "type" : "SCALAR"
        },
        {
            "bufferView" : 1,
            "componentType" : 5126,
            "count" : 240,
            "max" : [
                0.9510578513145447,
                1.0,
                0.9999999403953552
            ],
            "min" : [
                -0.9510578513145447,
                -1.0,
                -0.9999999403953552
            ],
            "type" : "VEC3"
        },
        {
            "bufferView" : 2,
            "componentType" : 5126,
            "count" : 240,
            "max" : [
                0.9920774102210999,
                0.9435237646102905,
                0.9435215592384338
            ],
            "min" : [
                -0.9920774102210999,
                -0.9435237646102905,
                -0.9435215592384338
            ],
            "type" : "VEC3"
        },
        {
            "bufferView" : 3,
            "componentType" : 5123,
            "count" : 3840,
            "max" : [
                3839
            ],
            "min" : [
                0
            ],
            "type" : "SCALAR"
        },
        {
            "bufferView" : 4,
            "componentType" : 5126,
            "count" : 3840,
            "max" : [
                1.0,
                1.0,
                0.9999999403953552
            ],
            "min" : [
                -0.9999999403953552,
                -1.0,
                -0.9999999403953552
            ],
            "type" : "VEC3"
        },
        {
            "bufferView" : 5,
            "componentType" : 5126,
            "count" : 3840,
            "max" : [
                0.9959714412689209,
                0.9972761273384094,
                0.9961613416671753
            ],
            "min" : [
                -0.9959714412689209,
                -0.9972761273384094,
                -0.9961613416671753
            ],
            "type" : "VEC3"
        }
    ],
    "asset" : {
        "generator" : "Khronos Blender glTF 2.0 exporter",
        "version" : "2.0"
    },
    "bufferViews" : [
        {
            "buffer" : 0,
            "byteLength" : 240,
            "byteOffset" : 0,
            "target" : 34963
        },
        {
            "buffer" : 0,
            "byteLength" : 2880,
            "byteOffset" : 240,
            "target" : 34962
        },
        {
            "buffer" : 0,
            "byteLength" : 2880,
            "byteOffset" : 3120,
            "target" : 34962
        },
        {
            "buffer" : 0,
            "byteLength" : 7680,
            "byteOffset" : 6000,
            "target" : 34963
        },
        {
            "buffer" : 0,
            "byteLength" : 46080,
            "byteOffset" : 13680,
            "target" : 34962
        },
        {
            "buffer" : 0,
            "byteLength" : 46080,
            "byteOffset" : 59760,
            "target" : 34962
        }
    ],
    "buffers" : [
        {
            "byteLength" : 105840,
            "uri" : "pain.bin"
        }
    ],
    "materials" : [
        {
            "emissiveFactor" : [
                60.00000536441803,
                1.64322042837739,
                13.210928812623024
            ],
            "name" : "Material.001",
            "pbrMetallicRoughness" : {
                "baseColorFactor" : [
                    0.24000003099441614,
                    0.006572881974692413,
                    0.05284371735031268,
                    1.0
                ],
                "metallicFactor" : 0.0
            }
        }
    ],
    "meshes" : [
        {
            "name" : "Icosphere.001",
            "primitives" : [
                {
                    "attributes" : {
                        "NORMAL" : 2,
                        "POSITION" : 1
                    },
                    "indices" : 0,
                    "material" : 0
                }
            ]
        },
        {
            "name" : "Icosphere",
            "primitives" : [
                {
                    "attributes" : {
                        "NORMAL" : 5,
                        "POSITION" : 4
                    },
                    "indices" : 3
                }
            ]
        }
    ],
    "nodes" : [
        {
            "mesh" : 1,
            "name" : "Icosphere",
            "scale" : [
                0.15000000596046448,
                0.15000000596046448,
                0.15000000596046448
            ],
            "translation" : [
                0.15143415331840515,
                0.04111000895500183,
                0.022992610931396484
            ]
        },
        {
            "mesh" : 0,
            "name" : "Icosphere.001",
            "translation" : [
                1.2084286212921143,
                1.20350980758667,
                -0.49083518981933594
            ]
        }
    ],
    "scene" : 0,
    "scenes" : [
        {
            "name" : "Scene",
            "nodes" : [
                0,
                1
            ]
        }
    ]
}
